<svg width="19" height="19" viewBox="0 0 19 19" fill="none" xmlns="http://www.w3.org/2000/svg">
<path d="M3.80001 16.15V8.98542L2.53334 9.97501L1.66251 8.82709L9.50001 2.85001L12.825 5.38334V3.80001H15.2V7.20417L17.3375 8.82709L16.4667 9.97501L15.2 8.98542V16.15H10.45V11.4H8.55001V16.15H3.80001ZM5.22501 14.725H7.12501V9.97501H11.875V14.725H13.775V7.89688L9.50001 4.65105L5.22501 7.89688V14.725ZM8.07501 8.07501H10.925C10.925 7.67917 10.7865 7.34271 10.5094 7.06563C10.2323 6.78855 9.89584 6.65001 9.50001 6.65001C9.10417 6.65001 8.76771 6.78855 8.49063 7.06563C8.21355 7.34271 8.07501 7.67917 8.07501 8.07501Z" fill="#1C2C46"/>
</svg>
